<?xml version="1.0" encoding="utf-8"?>
<!-- Generator: Adobe Illustrator 28.0.0, SVG Export Plug-In . SVG Version: 6.00 Build 0)  -->
<!DOCTYPE svg PUBLIC "-//W3C//DTD SVG 1.1//EN" "http://www.w3.org/Graphics/SVG/1.1/DTD/svg11.dtd" [
	<!ENTITY ns_extend "http://ns.adobe.com/Extensibility/1.0/">
	<!ENTITY ns_ai "http://ns.adobe.com/AdobeIllustrator/10.0/">
	<!ENTITY ns_graphs "http://ns.adobe.com/Graphs/1.0/">
	<!ENTITY ns_vars "http://ns.adobe.com/Variables/1.0/">
	<!ENTITY ns_imrep "http://ns.adobe.com/ImageReplacement/1.0/">
	<!ENTITY ns_sfw "http://ns.adobe.com/SaveForWeb/1.0/">
	<!ENTITY ns_custom "http://ns.adobe.com/GenericCustomNamespace/1.0/">
	<!ENTITY ns_adobe_xpath "http://ns.adobe.com/XPath/1.0/">
]>
<svg version="1.1" id="Layer_1" xmlns:x="&ns_extend;" xmlns:i="&ns_ai;" xmlns:graph="&ns_graphs;"
	 xmlns="http://www.w3.org/2000/svg" xmlns:xlink="http://www.w3.org/1999/xlink" x="0px" y="0px" width="478.8px" height="153.3px"
	 viewBox="0 0 478.8 153.3" style="enable-background:new 0 0 478.8 153.3;" xml:space="preserve">
<style type="text/css">
	.st0{fill:#636466;}
	.st1{fill:#00A651;}
	.st2{fill:#ED1C24;}
	.st3{fill:none;stroke:#ED1C24;stroke-width:0.9072;}
</style>
<metadata>
	<sfw  xmlns="&ns_sfw;">
		<slices></slices>
		<sliceSourceBounds  bottomLeftOrigin="true" height="221.2" width="1223.4" x="40.8" y="-409.5"></sliceSourceBounds>
	</sfw>
</metadata>
<g>
	<g>
		<g>
			<g>
				<g>
					<g>
						<path class="st0" d="M147.5,100.5c2.4,0,4.3,0.7,5.9,2.2c1.6,1.5,2.3,3.4,2.3,5.6c0,2.2-0.8,4.1-2.4,5.6
							c-1.6,1.5-3.6,2.2-6,2.2c-2.3,0-4.2-0.7-5.7-2.2c-1.5-1.5-2.3-3.3-2.3-5.5c0-2.3,0.8-4.2,2.3-5.6
							C143.2,101.3,145.2,100.5,147.5,100.5z M147.6,102.6c-1.7,0-3.2,0.5-4.3,1.6c-1.1,1.1-1.7,2.5-1.7,4.2c0,1.6,0.6,3,1.7,4.1
							c1.1,1.1,2.5,1.6,4.2,1.6c1.7,0,3.1-0.6,4.3-1.7c1.1-1.1,1.7-2.5,1.7-4.2c0-1.6-0.6-3-1.7-4.1
							C150.7,103.2,149.3,102.6,147.6,102.6z"/>
						<path class="st0" d="M166.4,108.7v7.3h-2v-5.6c0-1.1-0.1-1.9-0.4-2.3c-0.3-0.4-0.8-0.7-1.6-0.7c-0.4,0-0.8,0.1-1.1,0.3
							c-0.3,0.2-0.7,0.5-1.2,1v7.3h-2v-10h2v1.3c1-1,2-1.5,3-1.5c1.3,0,2.3,0.6,3,1.8c1.1-1.2,2.2-1.8,3.3-1.8c1,0,1.8,0.4,2.4,1.1
							c0.6,0.7,0.9,1.8,0.9,3.3v5.9h-2v-5.9c0-0.8-0.2-1.5-0.5-1.9c-0.3-0.4-0.8-0.7-1.5-0.7C167.9,107.5,167.1,107.9,166.4,108.7z"
							/>
						<path class="st0" d="M181.7,110v4.3c0,0.3,0.1,0.5,0.3,0.5c0.2,0,0.6-0.2,1.1-0.5v1.2c-0.4,0.3-0.8,0.5-1.1,0.6
							c-0.3,0.1-0.6,0.2-0.9,0.2c-0.9,0-1.3-0.3-1.5-1c-0.8,0.7-1.7,1-2.7,1c-0.7,0-1.3-0.2-1.7-0.7c-0.5-0.5-0.7-1-0.7-1.7
							c0-0.6,0.2-1.2,0.7-1.7c0.5-0.5,1.1-0.9,1.9-1.2l2.5-0.9v-0.5c0-1.2-0.6-1.8-1.8-1.8c-1.1,0-2.1,0.6-3.2,1.7v-2.2
							c0.8-0.9,1.9-1.4,3.3-1.4c1.1,0,2,0.3,2.6,0.8c0.2,0.2,0.4,0.4,0.6,0.7c0.2,0.3,0.3,0.6,0.3,0.9
							C181.7,108.5,181.7,109.1,181.7,110z M179.7,114v-3l-1.3,0.5c-0.7,0.3-1.2,0.5-1.4,0.8c-0.3,0.3-0.4,0.6-0.4,1
							c0,0.4,0.1,0.8,0.4,1c0.3,0.3,0.6,0.4,1,0.4C178.6,114.8,179.2,114.5,179.7,114z"/>
						<path class="st0" d="M186.9,106v1.3c0.9-1,1.9-1.5,3-1.5c0.6,0,1.2,0.2,1.7,0.5c0.5,0.3,0.9,0.8,1.2,1.3
							c0.3,0.6,0.4,1.5,0.4,2.7v5.7h-2v-5.7c0-1-0.2-1.8-0.5-2.2c-0.3-0.4-0.8-0.7-1.6-0.7c-0.9,0-1.7,0.5-2.4,1.4v7.2h-2v-10H186.9
							z"/>
						<path class="st0" d="M206.3,109.6l-1.7-1c-1-0.6-1.8-1.3-2.2-1.9c-0.4-0.6-0.7-1.3-0.7-2.1c0-1.2,0.4-2.2,1.3-2.9
							c0.8-0.7,1.9-1.1,3.2-1.1c1.3,0,2.4,0.4,3.5,1.1v2.5c-1.1-1.1-2.3-1.6-3.5-1.6c-0.7,0-1.3,0.2-1.8,0.5
							c-0.5,0.3-0.7,0.8-0.7,1.3c0,0.5,0.2,0.9,0.5,1.3c0.3,0.4,0.9,0.8,1.6,1.3l1.7,1c1.9,1.1,2.8,2.5,2.8,4.2c0,1.2-0.4,2.2-1.2,3
							c-0.8,0.8-1.9,1.1-3.2,1.1c-1.5,0-2.9-0.5-4.1-1.4V112c1.2,1.5,2.5,2.2,4.1,2.2c0.7,0,1.3-0.2,1.7-0.6
							c0.5-0.4,0.7-0.9,0.7-1.4C208.3,111.3,207.7,110.4,206.3,109.6z"/>
						<path class="st0" d="M217.3,105.9c1.5,0,2.8,0.5,3.8,1.5c1,1,1.5,2.2,1.5,3.7c0,1.4-0.5,2.6-1.5,3.6c-1,1-2.3,1.4-3.9,1.4
							c-1.5,0-2.8-0.5-3.8-1.5c-1-1-1.5-2.2-1.5-3.6c0-1.5,0.5-2.7,1.5-3.7C214.5,106.4,215.8,105.9,217.3,105.9z M217.2,107.7
							c-1,0-1.7,0.3-2.3,0.9c-0.6,0.6-0.9,1.4-0.9,2.4c0,1,0.3,1.7,0.9,2.3c0.6,0.6,1.4,0.9,2.4,0.9c1,0,1.8-0.3,2.4-0.9
							c0.6-0.6,0.9-1.4,0.9-2.4c0-1-0.3-1.7-1-2.4S218.2,107.7,217.2,107.7z"/>
						<path class="st0" d="M232.4,113.6v2c-1,0.4-2,0.6-2.9,0.6c-1.6,0-2.8-0.5-3.8-1.4c-0.9-0.9-1.4-2.2-1.4-3.7
							c0-1.6,0.5-2.8,1.4-3.8c0.9-1,2.1-1.4,3.6-1.4c0.5,0,1,0,1.4,0.1c0.4,0.1,0.9,0.3,1.5,0.5v2.1c-1-0.6-1.9-1-2.8-1
							c-0.9,0-1.6,0.3-2.2,0.9c-0.6,0.6-0.9,1.4-0.9,2.4c0,1,0.3,1.8,0.9,2.4c0.6,0.6,1.5,0.9,2.5,0.9
							C230.5,114.3,231.4,114.1,232.4,113.6z"/>
						<path class="st0" d="M235.6,101.7c0.3,0,0.6,0.1,0.8,0.3c0.2,0.2,0.3,0.5,0.3,0.8c0,0.3-0.1,0.6-0.3,0.8
							c-0.2,0.2-0.5,0.3-0.8,0.3c-0.3,0-0.6-0.1-0.8-0.4c-0.2-0.2-0.3-0.5-0.3-0.8c0-0.3,0.1-0.6,0.3-0.8
							C235.1,101.9,235.3,101.7,235.6,101.7z M234.7,106h2v10h-2V106z"/>
						<path class="st0" d="M248.1,111.2H241c0,1,0.4,1.7,1,2.3c0.6,0.6,1.4,0.9,2.3,0.9c1.3,0,2.5-0.4,3.6-1.2v1.9
							c-0.6,0.4-1.2,0.7-1.8,0.9c-0.6,0.2-1.3,0.3-2.1,0.3c-1.1,0-2-0.2-2.7-0.7c-0.7-0.5-1.2-1.1-1.6-1.8c-0.4-0.8-0.6-1.7-0.6-2.7
							c0-1.5,0.4-2.8,1.3-3.7c0.9-1,2-1.4,3.4-1.4c1.3,0,2.4,0.5,3.2,1.4c0.8,0.9,1.2,2.2,1.2,3.7V111.2z M241,110h5
							c-0.1-0.8-0.3-1.4-0.7-1.8c-0.4-0.4-1-0.6-1.7-0.6c-0.7,0-1.3,0.2-1.8,0.6C241.5,108.6,241.2,109.2,241,110z"/>
						<path class="st0" d="M248.8,107.6l3.7-3.7v2.1h3.2v1.8h-3.2v4.9c0,1.2,0.5,1.7,1.4,1.7c0.7,0,1.5-0.2,2.3-0.7v1.9
							c-0.8,0.4-1.6,0.6-2.5,0.6c-0.9,0-1.7-0.3-2.3-0.8c-0.2-0.2-0.3-0.3-0.5-0.5c-0.1-0.2-0.2-0.5-0.3-0.8
							c-0.1-0.3-0.1-0.9-0.1-1.8v-4.4h-1.7V107.6z"/>
						<path class="st0" d="M263.8,106h2.2l-7.1,15.1h-2.2l3.4-7.3l-3.9-7.9h2.3l2.7,5.7L263.8,106z"/>
						<path class="st0" d="M273.8,106v-0.6c0-1.6,0.3-2.8,1-3.6c0.7-0.8,1.5-1.2,2.5-1.2c0.4,0,0.9,0.1,1.5,0.2v1.9
							c-0.3-0.1-0.6-0.2-0.9-0.2c-0.8,0-1.3,0.2-1.6,0.6c-0.3,0.4-0.5,1.2-0.5,2.2v0.6h1.8v1.8h-1.8v8.2h-2v-8.2h-1.4V106H273.8z"/>
						<path class="st0" d="M283.8,105.9c1.5,0,2.8,0.5,3.8,1.5c1,1,1.5,2.2,1.5,3.7c0,1.4-0.5,2.6-1.5,3.6c-1,1-2.3,1.4-3.9,1.4
							c-1.5,0-2.8-0.5-3.8-1.5c-1-1-1.5-2.2-1.5-3.6c0-1.5,0.5-2.7,1.5-3.7C281,106.4,282.2,105.9,283.8,105.9z M283.7,107.7
							c-1,0-1.7,0.3-2.3,0.9c-0.6,0.6-0.9,1.4-0.9,2.4c0,1,0.3,1.7,0.9,2.3c0.6,0.6,1.4,0.9,2.4,0.9c1,0,1.8-0.3,2.4-0.9
							c0.6-0.6,0.9-1.4,0.9-2.4c0-1-0.3-1.7-1-2.4C285.5,108,284.7,107.7,283.7,107.7z"/>
						<path class="st0" d="M293.4,106v2.3l0.1-0.2c1-1.5,1.9-2.3,2.9-2.3c0.7,0,1.5,0.4,2.3,1.1l-1,1.7c-0.7-0.7-1.3-1-1.9-1
							c-0.6,0-1.2,0.3-1.7,0.9c-0.5,0.6-0.7,1.3-0.7,2.2v5.2h-2v-10H293.4z"/>
						<path class="st0" d="M306.5,116v-15.3h4.8c1.5,0,2.6,0.4,3.5,1.2c0.9,0.8,1.3,1.8,1.3,3.2c0,0.9-0.2,1.7-0.7,2.4
							c-0.4,0.7-1,1.2-1.8,1.5c-0.8,0.3-1.9,0.5-3.3,0.5h-1.6v6.6H306.5z M311,102.7h-2.3v4.8h2.4c0.9,0,1.6-0.2,2-0.6
							c0.5-0.4,0.7-1,0.7-1.8C313.8,103.5,312.9,102.7,311,102.7z"/>
						<path class="st0" d="M325.7,111.2h-7.1c0.1,1,0.4,1.7,1,2.3c0.6,0.6,1.4,0.9,2.3,0.9c1.3,0,2.5-0.4,3.6-1.2v1.9
							c-0.6,0.4-1.2,0.7-1.8,0.9c-0.6,0.2-1.3,0.3-2.1,0.3c-1.1,0-2-0.2-2.7-0.7c-0.7-0.5-1.2-1.1-1.6-1.8c-0.4-0.8-0.6-1.7-0.6-2.7
							c0-1.5,0.4-2.8,1.3-3.7c0.9-1,2-1.4,3.4-1.4c1.3,0,2.4,0.5,3.2,1.4c0.8,0.9,1.2,2.2,1.2,3.7V111.2z M318.7,110h5
							c-0.1-0.8-0.3-1.4-0.7-1.8c-0.4-0.4-1-0.6-1.7-0.6c-0.7,0-1.3,0.2-1.7,0.6C319.1,108.6,318.8,109.2,318.7,110z"/>
						<path class="st0" d="M326.5,107.6l3.7-3.7v2.1h3.2v1.8h-3.2v4.9c0,1.2,0.5,1.7,1.4,1.7c0.7,0,1.5-0.2,2.3-0.7v1.9
							c-0.8,0.4-1.6,0.6-2.5,0.6c-0.9,0-1.7-0.3-2.3-0.8c-0.2-0.2-0.3-0.3-0.5-0.5c-0.1-0.2-0.2-0.5-0.3-0.8
							c-0.1-0.3-0.1-0.9-0.1-1.8v-4.4h-1.7V107.6z"/>
						<path class="st0" d="M337.4,106v2.3l0.1-0.2c1-1.5,1.9-2.3,2.9-2.3c0.8,0,1.5,0.4,2.3,1.1l-1,1.7c-0.7-0.7-1.3-1-1.9-1
							c-0.6,0-1.2,0.3-1.7,0.9c-0.5,0.6-0.7,1.3-0.7,2.2v5.2h-2v-10H337.4z"/>
						<path class="st0" d="M348.4,105.9c1.5,0,2.8,0.5,3.8,1.5c1,1,1.5,2.2,1.5,3.7c0,1.4-0.5,2.6-1.5,3.6c-1,1-2.3,1.4-3.9,1.4
							c-1.5,0-2.8-0.5-3.8-1.5c-1-1-1.5-2.2-1.5-3.6c0-1.5,0.5-2.7,1.5-3.7C345.6,106.4,346.8,105.9,348.4,105.9z M348.3,107.7
							c-1,0-1.7,0.3-2.3,0.9c-0.6,0.6-0.9,1.4-0.9,2.4c0,1,0.3,1.7,0.9,2.3c0.6,0.6,1.4,0.9,2.4,0.9c1,0,1.8-0.3,2.4-0.9
							c0.6-0.6,0.9-1.4,0.9-2.4c0-1-0.3-1.7-1-2.4C350.1,108,349.3,107.7,348.3,107.7z"/>
						<path class="st0" d="M356,100.8h2V116h-2V100.8z"/>
						<path class="st0" d="M369.4,111.2h-7.1c0,1,0.4,1.7,1,2.3c0.6,0.6,1.4,0.9,2.3,0.9c1.3,0,2.5-0.4,3.6-1.2v1.9
							c-0.6,0.4-1.2,0.7-1.8,0.9c-0.6,0.2-1.3,0.3-2.1,0.3c-1.1,0-2-0.2-2.7-0.7c-0.7-0.5-1.2-1.1-1.6-1.8c-0.4-0.8-0.6-1.7-0.6-2.7
							c0-1.5,0.4-2.8,1.3-3.7c0.9-1,2-1.4,3.4-1.4c1.3,0,2.4,0.5,3.2,1.4c0.8,0.9,1.2,2.2,1.2,3.7V111.2z M362.3,110h5
							c-0.1-0.8-0.3-1.4-0.7-1.8c-0.4-0.4-1-0.6-1.7-0.6c-0.7,0-1.3,0.2-1.8,0.6C362.8,108.6,362.5,109.2,362.3,110z"/>
						<path class="st0" d="M377.9,116v-1.3c-0.4,0.5-0.9,0.8-1.4,1.1c-0.5,0.3-1.1,0.4-1.6,0.4c-0.6,0-1.2-0.2-1.8-0.5
							c-0.5-0.3-0.9-0.7-1.2-1.3c-0.3-0.5-0.4-1.4-0.4-2.7V106h2v5.7c0,1.1,0.2,1.8,0.5,2.2c0.3,0.4,0.8,0.6,1.6,0.6
							c0.9,0,1.7-0.5,2.4-1.4V106h2v10H377.9z"/>
						<path class="st0" d="M390.9,108.7v7.3h-2v-5.6c0-1.1-0.1-1.9-0.4-2.3c-0.3-0.4-0.8-0.7-1.6-0.7c-0.4,0-0.8,0.1-1.1,0.3
							c-0.3,0.2-0.7,0.5-1.2,1v7.3h-2v-10h2v1.3c1-1,2-1.5,3-1.5c1.3,0,2.3,0.6,3,1.8c1.1-1.2,2.2-1.8,3.3-1.8c1,0,1.8,0.4,2.4,1.1
							c0.6,0.7,0.9,1.8,0.9,3.3v5.9h-2v-5.9c0-0.8-0.2-1.5-0.5-1.9c-0.3-0.4-0.8-0.7-1.5-0.7C392.4,107.5,391.6,107.9,390.9,108.7z"
							/>
						<path class="st0" d="M410.1,109.6l-1.7-1c-1-0.6-1.8-1.3-2.2-1.9c-0.4-0.6-0.7-1.3-0.7-2.1c0-1.2,0.4-2.2,1.2-2.9
							c0.8-0.7,1.9-1.1,3.2-1.1c1.3,0,2.4,0.4,3.5,1.1v2.5c-1.1-1.1-2.3-1.6-3.5-1.6c-0.7,0-1.3,0.2-1.8,0.5
							c-0.5,0.3-0.7,0.8-0.7,1.3c0,0.5,0.2,0.9,0.5,1.3c0.3,0.4,0.9,0.8,1.6,1.3l1.7,1c1.9,1.1,2.8,2.5,2.8,4.2c0,1.2-0.4,2.2-1.2,3
							c-0.8,0.8-1.9,1.1-3.2,1.1c-1.5,0-2.9-0.5-4.1-1.4V112c1.2,1.5,2.5,2.2,4.1,2.2c0.7,0,1.3-0.2,1.7-0.6
							c0.5-0.4,0.7-0.9,0.7-1.4C412.1,111.3,411.5,110.4,410.1,109.6z"/>
						<path class="st0" d="M424.9,111.2h-7.1c0.1,1,0.4,1.7,1,2.3c0.6,0.6,1.4,0.9,2.3,0.9c1.3,0,2.5-0.4,3.6-1.2v1.9
							c-0.6,0.4-1.2,0.7-1.8,0.9c-0.6,0.2-1.3,0.3-2.1,0.3c-1.1,0-2-0.2-2.7-0.7c-0.7-0.5-1.2-1.1-1.6-1.8c-0.4-0.8-0.6-1.7-0.6-2.7
							c0-1.5,0.4-2.8,1.3-3.7c0.9-1,2-1.4,3.4-1.4c1.3,0,2.4,0.5,3.2,1.4c0.8,0.9,1.2,2.2,1.2,3.7V111.2z M417.8,110h5
							c0-0.8-0.3-1.4-0.7-1.8c-0.4-0.4-1-0.6-1.7-0.6c-0.7,0-1.3,0.2-1.8,0.6C418.3,108.6,418,109.2,417.8,110z"/>
						<path class="st0" d="M429.1,106v2.3l0.1-0.2c1-1.5,1.9-2.3,2.9-2.3c0.7,0,1.5,0.4,2.3,1.1l-1,1.7c-0.7-0.7-1.3-1-1.9-1
							c-0.6,0-1.2,0.3-1.7,0.9c-0.5,0.6-0.7,1.3-0.7,2.2v5.2h-2v-10H429.1z"/>
						<path class="st0" d="M442.7,106h2.2l-4.4,10.2h-0.7l-4.5-10.2h2.2l2.7,6.2L442.7,106z"/>
						<path class="st0" d="M447.3,101.7c0.3,0,0.6,0.1,0.8,0.3c0.2,0.2,0.3,0.5,0.3,0.8c0,0.3-0.1,0.6-0.3,0.8
							c-0.2,0.2-0.5,0.3-0.8,0.3c-0.3,0-0.6-0.1-0.8-0.4c-0.2-0.2-0.3-0.5-0.3-0.8c0-0.3,0.1-0.6,0.3-0.8
							C446.7,101.9,447,101.7,447.3,101.7z M446.3,106h2v10h-2V106z"/>
						<path class="st0" d="M458.7,113.6v2c-1,0.4-2,0.6-2.9,0.6c-1.6,0-2.8-0.5-3.8-1.4c-0.9-0.9-1.4-2.2-1.4-3.7
							c0-1.6,0.5-2.8,1.4-3.8c0.9-1,2.1-1.4,3.6-1.4c0.5,0,1,0,1.4,0.1c0.4,0.1,0.9,0.3,1.5,0.5v2.1c-1-0.6-1.9-1-2.8-1
							c-0.9,0-1.6,0.3-2.2,0.9c-0.6,0.6-0.9,1.4-0.9,2.4c0,1,0.3,1.8,0.9,2.4c0.6,0.6,1.5,0.9,2.5,0.9
							C456.8,114.3,457.7,114.1,458.7,113.6z"/>
						<path class="st0" d="M469.5,111.2h-7.1c0.1,1,0.4,1.7,1,2.3c0.6,0.6,1.4,0.9,2.3,0.9c1.3,0,2.5-0.4,3.6-1.2v1.9
							c-0.6,0.4-1.2,0.7-1.8,0.9c-0.6,0.2-1.3,0.3-2.1,0.3c-1.1,0-2-0.2-2.7-0.7c-0.7-0.5-1.2-1.1-1.6-1.8c-0.4-0.8-0.6-1.7-0.6-2.7
							c0-1.5,0.4-2.8,1.3-3.7c0.9-1,2-1.4,3.4-1.4c1.3,0,2.4,0.5,3.2,1.4c0.8,0.9,1.2,2.2,1.2,3.7V111.2z M462.5,110h5
							c-0.1-0.8-0.3-1.4-0.7-1.8c-0.4-0.4-1-0.6-1.7-0.6c-0.7,0-1.3,0.2-1.7,0.6C462.9,108.6,462.6,109.2,462.5,110z"/>
						<path class="st0" d="M471.2,115.3v-2.1c0.6,0.4,1.1,0.7,1.7,1c0.6,0.2,1.1,0.4,1.5,0.4c0.4,0,0.8-0.1,1.1-0.3
							c0.3-0.2,0.4-0.5,0.4-0.7c0-0.3-0.1-0.5-0.3-0.7c-0.2-0.2-0.6-0.5-1.2-0.8c-1.3-0.7-2.1-1.3-2.5-1.8c-0.4-0.5-0.6-1.1-0.6-1.7
							c0-0.8,0.3-1.4,0.9-1.9c0.6-0.5,1.4-0.7,2.3-0.7c1,0,2,0.3,3,0.8v2c-1.2-0.7-2.1-1.1-2.9-1.1c-0.4,0-0.7,0.1-0.9,0.2
							c-0.2,0.2-0.4,0.4-0.4,0.6c0,0.2,0.1,0.5,0.3,0.7c0.2,0.2,0.6,0.5,1.1,0.8l0.7,0.4c1.7,0.9,2.5,2,2.5,3.1c0,0.8-0.3,1.5-1,2
							c-0.6,0.5-1.5,0.8-2.5,0.8c-0.6,0-1.1-0.1-1.6-0.2C472.5,115.8,471.9,115.6,471.2,115.3z"/>
					</g>
				</g>
			</g>
		</g>
		<g>
			<path class="st0" d="M143,88.8c-1.1,0-2-0.4-2.8-1.2c-1-0.9-1.5-2.3-1.5-4.1c0-3.8,1.4-5.6,4.3-5.6h4.4v9h2.7v1.9H143z
				 M145.4,79.7H143c-0.8,0-1.4,0.4-1.9,1.4c-0.3,0.7-0.4,1.5-0.4,2.4c0,0.8,0.2,1.6,0.5,2.2c0.4,0.8,1,1.2,1.8,1.2h2.3V79.7z
				 M142.2,75.8v-2.2h2v2.2H142.2z M145.3,75.8v-2.2h2v2.2H145.3z"/>
			<path class="st0" d="M149.4,88.8v-1.9h3.2v1.9H149.4z"/>
			<path class="st0" d="M151.8,88.8v-1.9h3.2v1.9H151.8z"/>
			<path class="st0" d="M153.8,92.9v-2.2h2v2.2H153.8z M161.6,88.8c-1.6,0-2.8-0.5-3.6-1.5c-0.7,1-1.9,1.5-3.5,1.5c0.1,0,0,0-0.4,0
				v-1.9c0.1,0,0.2,0,0.4,0c1.6,0,2.4-0.8,2.4-2.3v-6.7h2v6.8c0,1.5,0.9,2.2,2.7,2.2c0,0,0.1,0,0.3,0v1.9
				C161.8,88.8,161.6,88.8,161.6,88.8z M157,92.9v-2.2h2v2.2H157z"/>
			<path class="st0" d="M161.3,88.8v-1.9h3.2v1.9H161.3z"/>
			<path class="st0" d="M163.7,88.8v-1.9h3.2v1.9H163.7z"/>
			<path class="st0" d="M166.3,88.8v-1.9h1.5V75.1h2l-0.3,8.2c1.5-3.3,3.4-5,5.9-5c1.4,0,2.5,0.5,3.2,1.6c0.7,0.9,1,2,1,3.2
				c0,1.4-0.4,2.6-1.1,3.7h3v1.9H166.3z M177.1,81.1c-0.4-0.6-1-1-1.8-1c-1.5,0-2.8,0.9-3.9,2.7c-0.5,0.9-1.1,2.2-1.7,4h5.1
				c1.9,0,2.8-1.3,2.8-3.7C177.6,82.3,177.4,81.7,177.1,81.1z"/>
			<path class="st0" d="M180.8,88.8v-1.9h3.2v1.9H180.8z"/>
			<path class="st0" d="M191.6,88.8c-0.9,0-1.8-0.2-2.6-0.4c-0.9,0.3-1.7,0.4-2.6,0.4h-3.2v-1.9h3.5c-1.5-1.4-2.3-2.9-2.3-4.4
				c0-1.4,0.4-2.4,1.3-3.3c0.9-0.8,2-1.3,3.3-1.3c1.4,0,2.4,0.4,3.3,1.3c0.9,0.8,1.3,1.9,1.3,3.3c0,1.6-0.8,3.1-2.3,4.4h3.5v1.9
				H191.6z M187.1,80.3c-0.5,0.5-0.7,1.2-0.7,2c0,1.6,0.9,2.9,2.6,3.9c1.7-1,2.6-2.3,2.6-3.9c0-0.8-0.2-1.4-0.7-2
				c-0.5-0.5-1.1-0.8-1.9-0.8C188.2,79.6,187.6,79.8,187.1,80.3z M188,75.8v-2.2h2v2.2H188z"/>
			<path class="st0" d="M194.1,88.8v-1.9h3.2v1.9H194.1z"/>
			<path class="st0" d="M203.9,88.8c-1.6,0-2.8-0.5-3.6-1.5c-0.7,1-1.9,1.5-3.5,1.5c0.1,0,0,0-0.4,0v-1.9c0.1,0,0.2,0,0.4,0
				c1.6,0,2.4-0.8,2.4-2.3v-6.7h2v6.8c0,1.5,0.9,2.2,2.7,2.2c0,0,0.1,0,0.4,0v1.9C204.1,88.8,203.9,88.8,203.9,88.8z M199.2,75.8
				v-2.2h2v2.2H199.2z"/>
			<path class="st0" d="M203.5,88.8v-1.9h3.2v1.9H203.5z"/>
			<path class="st0" d="M209.5,87.5c-0.9,0.8-2.1,1.3-3.5,1.3v-1.9c1.9,0,2.8-0.9,2.8-2.8V73.6h2v10.5
				C210.8,85.6,210.4,86.7,209.5,87.5z"/>
			<path class="st0" d="M213,88.8V73.6h2v15.1H213z"/>
			<path class="st0" d="M233.6,87.5c-0.8,0.8-2,1.3-3.4,1.3h-4.2c-1.4,0-2.6-0.4-3.4-1.2c-0.8-0.8-1.2-1.9-1.2-3.4v-6.3h2v6.2
				c0,1.8,0.8,2.8,2.5,2.8h4.4c1.7,0,2.6-0.9,2.6-2.8v-6.2h2v6.3C234.8,85.6,234.4,86.7,233.6,87.5z M225.5,75.8v-2.2h2v2.2H225.5z
				 M228.6,75.8v-2.2h2v2.2H228.6z"/>
			<path class="st0" d="M238.3,87.5c-0.9-0.8-1.3-1.9-1.3-3.4V73.6h2l0,10.4c0,1.8,0.9,2.8,2.8,2.8v1.9
				C240.3,88.8,239.2,88.3,238.3,87.5z"/>
			<path class="st0" d="M241.2,88.8v-1.9h3.2v1.9H241.2z"/>
			<path class="st0" d="M243.6,88.8v-1.9h3.2v1.9H243.6z"/>
			<path class="st0" d="M256.3,87.2c-0.8,1-1.9,1.5-3.3,1.5c-1.5,0-2.7-0.6-3.5-1.8c-0.7,1.2-1.9,1.8-3.4,1.8v-1.9
				c1,0,1.6-0.5,2.1-1.5c0.2-0.5,0.3-1.4,0.3-2.7h0c0-1.7,0.4-3.1,1.3-4c0.8-1,1.9-1.5,3.2-1.5c1.4,0,2.5,0.5,3.3,1.5
				c0.8,1.1,1.2,2.5,1.2,4.3C257.5,84.8,257.1,86.2,256.3,87.2z M253,78.8c-1.6,0-2.4,1.4-2.4,4.2c0,2.7,0.8,4.1,2.4,4.1
				c1.6,0,2.5-1.3,2.5-4C255.5,80.2,254.6,78.8,253,78.8z"/>
			<path class="st0" d="M259.8,88.8v-1.9h4.9v-4.1c0-1.3-0.1-2.1-0.4-2.6c-0.3-0.5-0.7-0.7-1.4-0.7l0.3-1.8c0.9,0,1.6,0.2,2.2,0.7
				c0.6,0.5,1.1,1.1,1.2,1.9c0.1,0.3,0.1,0.8,0.1,1.4v5.1h3v1.9H259.8z"/>
			<path class="st0" d="M269.2,88.8v-1.9h7.4c0-3.1-1-5.1-3-6.2c-0.8-0.4-1.8-0.7-3-0.7v-1.8c2.6,0,4.7,0.8,6.1,2.6
				c1.3,1.5,1.9,3.6,1.9,6.2h3v1.9H269.2z M272.6,75.8v-2.2h2v2.2H272.6z"/>
			<path class="st0" d="M280.9,88.8v-1.9h3.2v1.9H280.9z"/>
			<path class="st0" d="M283.3,88.8v-1.9h3.2v1.9H283.3z"/>
			<path class="st0" d="M293.1,88.8c-1.6,0-2.8-0.5-3.6-1.5c-0.7,1-1.9,1.5-3.5,1.5c0.1,0,0,0-0.4,0v-1.9c0.1,0,0.2,0,0.4,0
				c1.6,0,2.4-0.8,2.4-2.3V73.6h2v11c0,1.5,0.9,2.2,2.7,2.2c0,0,0.1,0,0.4,0v1.9C293.3,88.8,293.1,88.8,293.1,88.8z"/>
			<path class="st0" d="M296.3,87.5c-0.9,0.8-2.1,1.3-3.5,1.3v-1.9c1.9,0,2.8-0.9,2.8-2.8V73.6h2v10.5
				C297.6,85.6,297.2,86.7,296.3,87.5z"/>
			<path class="st0" d="M308.2,88.8c-1.1,0-2-0.4-2.8-1.2c-1-0.9-1.5-2.3-1.5-4.1c0-3.8,1.4-5.6,4.3-5.6h4.4v9h2.7v1.9H308.2z
				 M310.6,79.7h-2.3c-0.8,0-1.4,0.4-1.9,1.4c-0.3,0.7-0.4,1.5-0.4,2.4c0,0.8,0.2,1.6,0.5,2.2c0.4,0.8,1,1.2,1.8,1.2h2.3V79.7z
				 M307.4,75.8v-2.2h2v2.2H307.4z M310.5,75.8v-2.2h2v2.2H310.5z"/>
			<path class="st0" d="M314.6,88.8v-1.9h3.2v1.9H314.6z"/>
			<path class="st0" d="M316.6,92.9v-2.2h2v2.2H316.6z M324.4,88.8c-1.6,0-2.8-0.5-3.6-1.5c-0.7,1-1.9,1.5-3.5,1.5c0.1,0,0,0-0.4,0
				v-1.9c0.1,0,0.2,0,0.4,0c1.6,0,2.4-0.8,2.4-2.3v-6.7h2v6.8c0,1.5,0.9,2.2,2.7,2.2c0,0,0.1,0,0.4,0v1.9
				C324.6,88.8,324.4,88.8,324.4,88.8z M319.8,92.9v-2.2h2v2.2H319.8z"/>
			<path class="st0" d="M328.4,87.5c-0.8,0.8-2,1.2-3.4,1.2h-1.1v-1.9h1.1c1.8,0,2.7-0.9,2.7-2.8v-6.2h2v6.3
				C329.6,85.6,329.2,86.7,328.4,87.5z M327.6,75.8v-2.2h2v2.2H327.6z"/>
			<path class="st0" d="M333.2,87.5c-0.9-0.8-1.3-1.9-1.3-3.4V73.6h2l0,10.4c0,1.8,0.9,2.8,2.8,2.8v1.9
				C335.2,88.8,334,88.3,333.2,87.5z"/>
			<path class="st0" d="M336.1,88.8v-1.9h3.2v1.9H336.1z"/>
			<path class="st0" d="M338.5,88.8v-1.9h3.2v1.9H338.5z"/>
			<path class="st0" d="M340.9,88.8v-1.9h3.2v1.9H340.9z"/>
			<path class="st0" d="M357.7,88.8c-1.2,0-2.2-0.3-3-1c-0.7,2.1-2.1,3.1-4.1,3.1c-2,0-3.4-1-4.1-2.9c-0.7,0.5-1.6,0.8-2.8,0.8h-0.4
				v-1.9h0.4c1.4,0,2.2-0.7,2.3-2c0.1-1.8,0.5-3.2,1.3-4.1c0.8-1,1.9-1.5,3.3-1.5c1.4,0,2.6,0.6,3.4,1.7c0.7,1,1.1,2.3,1.1,3.7
				c0,1.5,0.9,2.2,2.6,2.2h0.4v1.9H357.7z M350.5,80.9c-1.6,0-2.4,1.4-2.4,4.1c0,2.6,0.8,4,2.4,4c1.6,0,2.5-1.3,2.5-3.9
				C353,82.3,352.2,80.9,350.5,80.9z"/>
			<path class="st0" d="M357.3,88.8v-1.9h3.2v1.9H357.3z"/>
			<path class="st0" d="M369.7,88.8c-0.8,0-1.5-0.1-2.3-0.4c-0.7,0.3-1.5,0.4-2.3,0.4h-5.4v-1.9h5.4l-3.7-3.4c0-1.6,0.5-2.9,1.6-4
				c1.1-1.1,2.5-1.7,4.4-1.7c1.8,0,3.3,0.6,4.4,1.7c1.1,1.1,1.6,2.4,1.6,4l-3.7,3.4h5.4v1.9H369.7z M370.2,80.6
				c-0.7-0.7-1.6-1.1-2.7-1.1h-0.1c-1.1,0-2,0.3-2.7,1c-0.7,0.7-1.1,1.5-1.1,2.5c0.6,0.6,1.9,1.7,3.8,3.5l3.8-3.5
				C371.2,82.1,370.9,81.3,370.2,80.6z"/>
			<path class="st0" d="M374.4,88.8v-1.9h3.2v1.9H374.4z"/>
			<path class="st0" d="M380.3,87.5c-0.9,0.8-2.1,1.3-3.5,1.3v-1.9c1.9,0,2.8-0.9,2.8-2.8V73.6h2v10.5
				C381.6,85.6,381.2,86.7,380.3,87.5z"/>
			<path class="st0" d="M383.8,88.8V73.6h2v15.1H383.8z"/>
			<path class="st0" d="M396.4,88.8c-1.1,0-2-0.4-2.8-1.2c-1-0.9-1.5-2.3-1.5-4.1c0-3.8,1.4-5.6,4.3-5.6h4.4v9h2.7v1.9H396.4z
				 M398.8,79.7h-2.3c-0.8,0-1.4,0.4-1.9,1.4c-0.3,0.7-0.5,1.5-0.5,2.4c0,0.8,0.2,1.6,0.5,2.2c0.4,0.8,1,1.2,1.8,1.2h2.3V79.7z
				 M395.7,75.8v-2.2h2v2.2H395.7z M398.8,75.8v-2.2h2v2.2H398.8z"/>
			<path class="st0" d="M402.8,88.8v-1.9h3.2v1.9H402.8z"/>
			<path class="st0" d="M405.3,88.8v-1.9h3.2v1.9H405.3z"/>
			<path class="st0" d="M407.7,88.8v-1.9h3.2v1.9H407.7z"/>
			<path class="st0" d="M410.1,88.8v-1.9h3.2v1.9H410.1z"/>
			<path class="st0" d="M412.1,92.9v-2.2h2v2.2H412.1z M419.9,88.8c-1.6,0-2.8-0.5-3.6-1.5c-0.7,1-1.9,1.5-3.5,1.5c0.1,0,0,0-0.4,0
				v-1.9c0.1,0,0.2,0,0.4,0c1.6,0,2.4-0.8,2.4-2.3v-6.7h2v6.8c0,1.5,0.9,2.2,2.7,2.2c0,0,0.1,0,0.4,0v1.9
				C420,88.8,419.9,88.8,419.9,88.8z M415.3,92.9v-2.2h2v2.2H415.3z"/>
			<path class="st0" d="M419.5,88.8v-1.9h3.2v1.9H419.5z"/>
			<path class="st0" d="M431.9,88.8c-0.8,0-1.5-0.1-2.3-0.4c-0.7,0.3-1.5,0.4-2.3,0.4h-5.4v-1.9h5.4l-3.7-3.4c0-1.6,0.5-2.9,1.6-4
				c1.1-1.1,2.5-1.7,4.4-1.7c1.8,0,3.3,0.6,4.4,1.7c1.1,1.1,1.6,2.4,1.6,4l-3.7,3.4h5.4v1.9H431.9z M432.4,80.6
				c-0.7-0.7-1.6-1.1-2.7-1.1h-0.1c-1.1,0-2,0.3-2.7,1c-0.7,0.7-1.1,1.5-1.1,2.5c0.6,0.6,1.9,1.7,3.8,3.5l3.8-3.5
				C433.4,82.1,433,81.3,432.4,80.6z"/>
			<path class="st0" d="M436.5,88.8v-1.9h3.2v1.9H436.5z"/>
			<path class="st0" d="M453.3,88.8c-1.2,0-2.2-0.3-3-1c-0.7,2.1-2.1,3.1-4.1,3.1c-2,0-3.4-1-4.1-2.9c-0.7,0.5-1.6,0.8-2.8,0.8h-0.4
				v-1.9h0.4c1.4,0,2.2-0.7,2.3-2c0.1-1.8,0.5-3.2,1.3-4.1c0.8-1,1.9-1.5,3.3-1.5c1.4,0,2.6,0.6,3.4,1.7c0.7,1,1.1,2.3,1.1,3.7
				c0,1.5,0.9,2.2,2.6,2.2h0.4v1.9H453.3z M446.2,80.9c-1.6,0-2.4,1.4-2.4,4.1c0,2.6,0.8,4,2.4,4c1.6,0,2.5-1.3,2.5-3.9
				C448.7,82.3,447.8,80.9,446.2,80.9z"/>
			<path class="st0" d="M453,88.8v-1.9h3.2v1.9H453z"/>
			<path class="st0" d="M455.5,88.8v-1.9h7.5c0-3.1-1-5.1-3-6.2c-0.8-0.4-1.8-0.7-3-0.7v-1.8c2.6,0,4.7,0.8,6.1,2.6
				c1.3,1.5,1.9,3.6,1.9,6.2h2.9v1.9H455.5z M459,92.9v-2.2h2v2.2H459z"/>
			<path class="st0" d="M467.3,88.8v-1.9h3.2v1.9H467.3z"/>
			<path class="st0" d="M473.3,87.5c-0.9,0.8-2.1,1.3-3.5,1.3v-1.9c1.9,0,2.8-0.9,2.8-2.8V73.6h2v10.5
				C474.6,85.6,474.2,86.7,473.3,87.5z"/>
			<path class="st0" d="M476.8,88.8V73.6h2v15.1H476.8z"/>
		</g>
	</g>
	<g>
		<g>
			<g>
				<g>
					<path d="M66.6,80.8l-3.4-2.7c-4.4-3-6.7-8.7-6.7-15.2h-0.1c0,6.5-2.3,12.1-6.7,15.2l-3.5,2.7C41.1,84.3,37,90.3,37,97
						c0,10.8,8.6,19.6,19.4,19.6c10.8,0,19.4-8.8,19.4-19.6C75.9,90.3,71.8,84.3,66.6,80.8z M45.3,109.7l1.7-1.1
						c2.3,3.3,4.8,5.3,4.8,5.3C49.3,112.8,47.1,111.4,45.3,109.7z M48.3,84.8c-6.9,8.2-5.7,15.8-2.9,21.1l-2.4,1.1
						c-1.9-2.8-3.1-6.1-3.1-10c0-6.8,4.7-12.8,9.9-16.3l3.5-2.7C53.4,78.1,51.8,81.2,48.3,84.8z"/>
					<path class="st1" d="M90.1,97H79.6c0,13-10.5,23.5-23.5,23.5c-13,0-23.5-10.5-23.5-23.5c0-8.1,4.1-15.3,10.3-19.5l2.8-1.7
						c6.2-4.2,10.3-11.4,10.3-19.5L56,38.2c0,12.3-6.5,23.1-16.4,29.1L38.4,68c-9.7,6-16.2,16.7-16.2,29c0,18.8,15.2,34,34,34l0,0h0
						c0,0,0,0,0,0l0,0C74.9,131,90.1,115.8,90.1,97z"/>
					<path class="st2" d="M56.1,153.3c-31,0-56.1-25.1-56.1-56.1c0-20.3,10.7-38,26.8-47.9l2.1-1.2c16.2-9.9,27-27.7,27-48l0.2,30
						c0,13.4-6.8,25.2-17.1,32.2L34.5,65c-10.3,7-17.1,18.8-17.1,32.2c0,21.4,17.4,38.8,38.8,38.8V153.3z"/>
				</g>
			</g>
			<g>
				<path class="st2" d="M69.8,139.6c2-0.6,3.7,0.6,4.2,2.4c0.6,2-0.4,3.7-2.3,4.3c-1.9,0.6-3.6-0.4-4.2-2.4
					C67,142,67.8,140.1,69.8,139.6z M68.1,133.9c-5.2,1.5-8.5,6.3-6.9,11.8c1.6,5.5,6.9,7.6,12.1,6.1c5.3-1.5,8.6-6.1,7-11.7
					C78.7,134.6,73.4,132.4,68.1,133.9z"/>
				<path class="st2" d="M85.1,130.7l0.5-0.4c0.8-0.7,1.9-1.5,2.8-0.4c0.9,1.1,0.1,2.1-0.8,2.8l-0.5,0.4L85.1,130.7z M88.8,144.8
					l4.8-4.1l-3.5-4.1l2.5-2.2c2.8-2.4,3.1-5.6,0.7-8.4c-2.9-3.4-6.6-3-9.9-0.3l-6.3,5.4L88.8,144.8z"/>
				<path class="st2" d="M101.1,122.2l-4.2-3.7l0.1-0.2c0.7,0.3,1.5,0.6,2.2,0.8l3.1,0.9L101.1,122.2z M104.2,125.3l2.4-4.3l2.3,0.6
					l3.4-6l-18.8-3.2l-3.5,6.3l12.7,14.2l3.4-6.1L104.2,125.3z"/>
				<path class="st2" d="M95.4,107.4l1-6.5l12.1,1.8l0.8-5.4l5.7,0.9l-1.8,11.9L95.4,107.4z"/>
			</g>
		</g>
	</g>
</g>
</svg>
